<?xml version="1.0" encoding="utf-8"?>
<!-- Generator: Adobe Illustrator 24.1.2, SVG Export Plug-In . SVG Version: 6.00 Build 0)  -->
<svg version="1.1" id="Capa_1" xmlns="http://www.w3.org/2000/svg" xmlns:xlink="http://www.w3.org/1999/xlink" x="0px" y="0px"
	 viewBox="0 0 490.7 490.7" style="enable-background:new 0 0 490.7 490.7;" xml:space="preserve">
<style type="text/css">
	.st0{fill:#FFFFFF;}
</style>
<path class="st0" d="M356.3,236.6l-126.2-120c-1.1-1-2.5-1.6-4.1-1.6H122.7c-3.2,0-5.7,2.4-5.7,5.4c0,1.5,0.6,2.8,1.7,3.9
	l122.2,116.2L118.7,356.7c-2.2,2.1-2.2,5.6,0,7.7c1.1,1,2.5,1.6,4.1,1.6H226c1.5,0,3-0.6,4.1-1.6l126.2-120
	C358.6,242.2,358.6,238.8,356.3,236.6C356.3,236.6,356.3,236.6,356.3,236.6z"/>
</svg>
