<?xml version="1.0" encoding="utf-8"?>
<!-- Generator: Adobe Illustrator 24.1.2, SVG Export Plug-In . SVG Version: 6.00 Build 0)  -->
<svg version="1.1" id="Capa_1" xmlns="http://www.w3.org/2000/svg" xmlns:xlink="http://www.w3.org/1999/xlink" x="0px" y="0px"
	 viewBox="0 0 512 512" style="enable-background:new 0 0 512 512;" xml:space="preserve">
<style type="text/css">
	.st0{fill:#FFFFFF;}
	.st1{fill:#DFEAF8;}
	.st2{fill:#00A9E3;}
	.st3{fill:#0095C9;}
	.st4{fill:#7A7780;}
	.st5{fill:#57555C;}
	.st6{fill:#ACCEE1;}
	.st7{fill:#88A2B1;}
	.st8{fill:#FEA832;}
	.st9{fill:#FE9923;}
</style>
<g id="XMLID_2_">
	<g>
		<path class="st0" d="M512,152v255c0,24.9-20.1,45-45,45H105c-24.9,0-45-20.1-45-45V152l30-32h392L512,152z"/>
	</g>
	<g>
	</g>
</g>
<path class="st1" d="M60,152v255c0,24.9,20.1,45,45,45h181V120H90L60,152z"/>
<g id="XMLID_1_">
	<g>
		<path class="st2" d="M512,75v77H60V75c0-24.9,20.1-45,45-45h362C491.9,30,512,50.1,512,75z"/>
	</g>
	<g>
	</g>
</g>
<path class="st3" d="M60,75v77h226V30H105C80.1,30,60,50.1,60,75z"/>
<g>
	<path class="st4" d="M437,90c8.3,0,15-6.7,15-15V15c0-8.3-6.7-15-15-15s-15,6.7-15,15v60C422,83.3,428.7,90,437,90z"/>
	<path class="st4" d="M347,90c8.3,0,15-6.7,15-15V15c0-8.3-6.7-15-15-15s-15,6.7-15,15v60C332,83.3,338.7,90,347,90z"/>
</g>
<g>
	<path class="st5" d="M225,90c8.3,0,15-6.7,15-15V15c0-8.3-6.7-15-15-15s-15,6.7-15,15v60C210,83.3,216.7,90,225,90z"/>
	<path class="st5" d="M135,90c8.3,0,15-6.7,15-15V15c0-8.3-6.7-15-15-15s-15,6.7-15,15v60C120,83.3,126.7,90,135,90z"/>
</g>
<g>
	<path class="st6" d="M406.5,211.5h30c8.3,0,15-6.7,15-15s-6.7-15-15-15h-30c-8.3,0-15,6.7-15,15S398.2,211.5,406.5,211.5z"/>
	<path class="st6" d="M315.5,211.5h31c8.3,0,15-6.7,15-15s-6.7-15-15-15h-31c-8.3,0-15,6.7-15,15S307.2,211.5,315.5,211.5z"/>
</g>
<g>
	<path class="st7" d="M225,212h31c8.3,0,15-6.7,15-15s-6.7-15-15-15h-31c-8.3,0-15,6.7-15,15S216.7,212,225,212z"/>
	<path class="st7" d="M135,212h30c8.3,0,15-6.7,15-15s-6.7-15-15-15h-30c-8.3,0-15,6.7-15,15S126.7,212,135,212z"/>
</g>
<g>
	<path class="st6" d="M406.5,271.5h30c8.3,0,15-6.7,15-15s-6.7-15-15-15h-30c-8.3,0-15,6.7-15,15
		C391.5,264.8,398.2,271.5,406.5,271.5z"/>
	<path class="st6" d="M315.5,271.5h31c8.3,0,15-6.7,15-15s-6.7-15-15-15h-31c-8.3,0-15,6.7-15,15
		C300.5,264.8,307.2,271.5,315.5,271.5z"/>
</g>
<g>
	<path class="st7" d="M225,272h31c8.3,0,15-6.7,15-15s-6.7-15-15-15h-31c-8.3,0-15,6.7-15,15C210,265.3,216.7,272,225,272z"/>
	<path class="st7" d="M135,272h30c8.3,0,15-6.7,15-15s-6.7-15-15-15h-30c-8.3,0-15,6.7-15,15C120,265.3,126.7,272,135,272z"/>
</g>
<g>
	<path class="st6" d="M406.5,331.5h30c8.3,0,15-6.7,15-15s-6.7-15-15-15h-30c-8.3,0-15,6.7-15,15S398.2,331.5,406.5,331.5z"/>
	<path class="st6" d="M315.5,331.5h31c8.3,0,15-6.7,15-15s-6.7-15-15-15h-31c-8.3,0-15,6.7-15,15S307.2,331.5,315.5,331.5z"/>
</g>
<path class="st7" d="M225,332h31c8.3,0,15-6.7,15-15s-6.7-15-15-15h-31c-8.3,0-15,6.7-15,15S216.7,332,225,332z"/>
<g>
	<path class="st6" d="M407,392h30c8.3,0,15-6.7,15-15s-6.7-15-15-15h-30c-8.3,0-15,6.7-15,15S398.7,392,407,392z"/>
	<path class="st6" d="M316,392h31c8.3,0,15-6.7,15-15s-6.7-15-15-15h-31c-8.3,0-15,6.7-15,15S307.7,392,316,392z"/>
</g>
<path class="st7" d="M225,392h31c8.3,0,15-6.7,15-15s-6.7-15-15-15h-31c-8.3,0-15,6.7-15,15S216.7,392,225,392z"/>
<path class="st8" d="M105,302c57.9,0,105,47.1,105,105s-47.1,105-105,105S0,464.9,0,407S47.1,302,105,302z"/>
<path class="st9" d="M0,407c0,57.9,47.1,105,105,105V302C47.1,302,0,349.1,0,407z"/>
<path class="st4" d="M60,407c0,8.4,6.6,15,15,15h30c8.4,0,15-6.6,15-15v-60c0-8.4-6.6-15-15-15s-15,6.6-15,15v45H75
	C66.6,392,60,398.6,60,407z"/>
<path class="st5" d="M60,407c0,8.4,6.6,15,15,15h30v-90c-8.4,0-15,6.6-15,15v45H75C66.6,392,60,398.6,60,407z"/>
</svg>
