<svg id="Capa_1" enable-background="new 0 0 512 512" height="512" viewBox="0 0 512 512" width="512" xmlns="http://www.w3.org/2000/svg"><g><circle cx="116.532" cy="120.375" fill="#80cb8e" r="116.532"/><path d="m136.613 235.178c-6.526 1.137-13.233 1.733-20.089 1.733-64.357 0-116.524-52.178-116.524-116.536s52.167-116.535 116.525-116.535c6.856 0 13.562.595 20.089 1.732-54.792 9.513-96.447 57.29-96.447 114.803s41.654 105.29 96.446 114.803z" fill="#6ec17d"/><g fill="#454045"><path d="m60.737 75.58c-7.974 0-14.462 10.774-14.462 24.018s6.488 24.018 14.462 24.018c7.975 0 14.463-10.774 14.463-24.018s-6.488-24.018-14.463-24.018z"/><path d="m172.326 75.58c-7.974 0-14.462 10.774-14.462 24.018s6.488 24.018 14.462 24.018c7.975 0 14.463-10.774 14.463-24.018s-6.488-24.018-14.463-24.018z"/></g><path d="m116.532 186.292c-23.771 0-45.101-14.159-54.34-36.073-1.658-3.932.186-8.463 4.118-10.121 3.932-1.657 8.463.186 10.121 4.118 6.819 16.174 22.56 26.624 40.102 26.624s33.282-10.451 40.102-26.624c1.658-3.932 6.188-5.775 10.121-4.118 3.932 1.658 5.776 6.189 4.118 10.121-9.241 21.913-30.571 36.073-54.342 36.073z" fill="#454045"/><circle cx="116.532" cy="391.624" fill="#dd636e" r="116.532"/><path d="m136.613 506.427c-6.526 1.137-13.233 1.733-20.089 1.733-64.357 0-116.524-52.178-116.524-116.536s52.167-116.535 116.525-116.535c6.856 0 13.562.595 20.089 1.732-54.792 9.513-96.447 57.29-96.447 114.803s41.654 105.29 96.446 114.803z" fill="#da4a54"/><g fill="#454545"><path d="m60.737 346.829c-7.974 0-14.462 10.775-14.462 24.018s6.488 24.018 14.462 24.018c7.975 0 14.463-10.775 14.463-24.018s-6.488-24.018-14.463-24.018z"/><path d="m172.326 346.829c-7.974 0-14.462 10.775-14.462 24.018s6.488 24.018 14.462 24.018c7.975 0 14.463-10.775 14.463-24.018s-6.488-24.018-14.463-24.018z"/></g><path d="m163.757 457.543c-3.015 0-5.878-1.775-7.123-4.727-6.819-16.174-22.56-26.624-40.102-26.624s-33.282 10.451-40.102 26.624c-1.657 3.932-6.188 5.776-10.121 4.118-3.932-1.657-5.776-6.189-4.118-10.121 9.239-21.914 30.569-36.074 54.34-36.074s45.101 14.16 54.34 36.074c1.658 3.932-.186 8.463-4.118 10.121-.978.413-1.996.609-2.996.609z" fill="#454545"/><path d="m406.967 222.223c-6.349 0-12.414-2.846-16.474-7.826l-79.527-97.553c-7.418-9.1-6.056-22.49 3.044-29.909 9.099-7.418 22.49-6.055 29.908 3.045l59.099 72.494 68.858-132.488c5.414-10.417 18.248-14.473 28.666-9.059 10.417 5.414 14.473 18.248 9.058 28.666l-83.768 161.175c-3.3 6.349-9.573 10.612-16.691 11.343-.726.075-1.452.112-2.173.112z" fill="#80cb8e"/><path d="m439.062 391.625 67.072-67.072c7.821-7.821 7.821-20.501 0-28.322s-20.501-7.821-28.322 0l-67.072 67.072-67.072-67.072c-7.821-7.821-20.501-7.821-28.322 0s-7.821 20.501 0 28.322l67.072 67.072-67.072 67.072c-7.821 7.821-7.821 20.501 0 28.322 3.911 3.911 9.036 5.866 14.161 5.866s10.251-1.955 14.161-5.866l67.072-67.072 67.072 67.072c3.911 3.911 9.036 5.866 14.161 5.866 5.126 0 10.251-1.955 14.161-5.866 7.821-7.821 7.821-20.501 0-28.322z" fill="#dd636e"/></g></svg>