<?xml version="1.0" encoding="utf-8"?>
<!-- Generator: Adobe Illustrator 24.1.2, SVG Export Plug-In . SVG Version: 6.00 Build 0)  -->
<svg version="1.1" id="Capa_1" xmlns="http://www.w3.org/2000/svg" xmlns:xlink="http://www.w3.org/1999/xlink" x="0px" y="0px"
	 viewBox="0 0 512 512" style="enable-background:new 0 0 512 512;" xml:space="preserve">
<style type="text/css">
	.st0{fill:#CEE2E8;}
	.st1{fill:#FBFBFB;}
	.st2{fill:#9FCCDE;}
	.st3{fill:#DFEEF7;}
</style>
<g>
	<path class="st0" d="M482.2,288.5l29.8-4.7v-55.7l-29.8-4.7c-24.6-4.1-33.2-36.7-14-52.4l22.5-18.6l-27.7-48l-27.6,10.3
		c-23.3,8.7-47-14.9-38.3-38.3L407.5,49l-48-27.7L341,43.8c-15.8,19.2-48.3,10.6-52.5-14L283.8,0h-55.7l-4.7,29.8
		c-4.2,24.6-36.7,33.2-52.4,14l-18.6-22.5l-48,27.7l10.3,27.6c8.7,23.3-14.9,47-38.3,38.3L49,104.5l-27.7,48L43.8,171
		c19.1,15.7,10.7,48.3-14,52.4L0,228.2v55.7l29.8,4.7c24.5,4.1,33.3,36.6,14,52.5l-22.5,18.5l27.7,48l27.6-10.3
		c23.2-8.7,47,14.8,38.3,38.3L104.5,463l48,27.7l18.6-22.5c15.7-19.1,48.3-10.7,52.4,14l4.7,29.8h55.7l4.7-29.8
		c4.1-24.4,36.6-33.3,52.5-14l18.5,22.5l48-27.7l-10.3-27.6c-8.7-23.2,14.8-47,38.3-38.3l27.6,10.3l27.7-48L468.2,341
		C449,325.2,457.6,292.7,482.2,288.5z M256,381c-68.9,0-125-56.1-125-125s56.1-125,125-125s125,56.1,125,125S324.9,381,256,381z"/>
	<path class="st1" d="M468.2,341l22.5,18.5l-27.7,48l-27.6-10.3c-23.4-8.8-47,15-38.3,38.3l10.3,27.6l-48,27.7L341,468.2
		c-15.9-19.3-48.3-10.4-52.5,14l-4.7,29.8H256V381c68.9,0,125-56.1,125-125s-56.1-125-125-125V0h27.8l4.7,29.8
		c4.1,24.6,36.7,33.2,52.5,14l18.5-22.5l48,27.7l-10.3,27.6c-8.8,23.3,14.9,47,38.3,38.3l27.6-10.3l27.7,48L468.2,171
		c-19.2,15.8-10.6,48.3,14,52.4l29.8,4.7v55.7l-29.8,4.7C457.6,292.7,449,325.2,468.2,341L468.2,341z"/>
	<path class="st2" d="M256,121c-74.4,0-135,60.6-135,135s60.6,135,135,135s135-60.6,135-135S330.4,121,256,121z M256,331
		c-41.4,0-75-33.6-75-75s33.6-75,75-75s75,33.6,75,75S297.4,331,256,331z"/>
	<path class="st3" d="M391,256c0,74.4-60.6,135-135,135v-60c41.4,0,75-33.6,75-75s-33.6-75-75-75v-60C330.4,121,391,181.6,391,256z"
		/>
</g>
</svg>
