<svg xmlns="http://www.w3.org/2000/svg" viewBox="0 0 512 233.07"><defs><style>.cls-1{fill:#dd636e;}.cls-2{fill:#da4a54;}.cls-3{fill:#454545;}</style></defs><g id="Capa_2" data-name="Capa 2"><g id="Capa_1-2" data-name="Capa 1"><circle class="cls-1" cx="116.53" cy="116.54" r="116.53"/><path class="cls-2" d="M136.61,231.34a116.54,116.54,0,1,1,0-229.61,116.55,116.55,0,0,0,0,229.61Z"/><path class="cls-3" d="M60.74,71.74c-8,0-14.46,10.78-14.46,24s6.48,24,14.46,24S75.2,109,75.2,95.76,68.71,71.74,60.74,71.74Z"/><path class="cls-3" d="M172.33,71.74c-8,0-14.47,10.78-14.47,24s6.49,24,14.47,24,14.46-10.78,14.46-24S180.3,71.74,172.33,71.74Z"/><path class="cls-3" d="M163.76,182.45a7.73,7.73,0,0,1-7.13-4.72,43.51,43.51,0,0,0-80.2,0,7.73,7.73,0,1,1-14.24-6,59,59,0,0,1,108.68,0,7.72,7.72,0,0,1-7.11,10.73Z"/><path class="cls-1" d="M439.06,116.54l67.07-67.08a20,20,0,1,0-28.32-28.32L410.74,88.21,343.67,21.14a20,20,0,1,0-28.32,28.32l67.07,67.08-67.07,67.07a20,20,0,1,0,28.32,28.32l67.07-67.07,67.07,67.07a20,20,0,1,0,28.32-28.32Z"/></g></g></svg>