<?xml version="1.0" encoding="utf-8"?>
<!-- Generator: Adobe Illustrator 24.1.2, SVG Export Plug-In . SVG Version: 6.00 Build 0)  -->
<svg version="1.1" id="color" xmlns="http://www.w3.org/2000/svg" xmlns:xlink="http://www.w3.org/1999/xlink" x="0px" y="0px"
	 viewBox="0 0 512 512" style="enable-background:new 0 0 512 512;" xml:space="preserve">
<style type="text/css">
	.st0{fill:#FFFFFF;}
	.st1{fill:#E8E9EA;}
	.st2{fill:#2196F3;}
	.st3{fill:#D3D3D3;}
	.st4{fill:#BFC0C1;}
	.st5{fill:#1E5E82;}
	.st6{fill:#F2D041;}
	.st7{fill:#FCCC00;}
	.st8{fill:#FFBF00;}
	.st9{fill:#C68F05;}
</style>
<path class="st0" d="M304,64H58.7C26.2,64,0,90.2,0,122.7v266.7C0,421.8,26.2,448,58.7,448h173.7c-17.7-24.1-28.4-53.5-29.4-85.3H80
	c-8.7,0-16-7.3-16-16c0-8.7,7.3-16,16-16h125.2c1.9-13.2,6-25.6,11.5-37.3H80c-8.7,0-16-7.3-16-16s7.3-16,16-16h156.2
	c11.7-14.9,26.5-27.7,43.1-37.3H80c-8.7,0-16-7.3-16-16c0-8.7,7.3-16,16-16h202.7c8.7,0,16,7.3,16,16c0,2.3-0.6,4.7-1.5,6.8
	c18.6-7.9,38.8-12.2,60.2-12.2l5.3,0.2v-80.2C362.7,90.2,336.4,64,304,64z"/>
<path class="st1" d="M261.3,42.7h-23.5C230.8,18.1,208.2,0,181.3,0s-49.5,18.1-56.5,42.7h-23.5c-8.7,0-16,7.3-16,16v42.7
	c0,20.5,16.9,37.3,37.3,37.3H240c20.5,0,37.3-16.9,37.3-37.3V58.7C277.3,49.9,270.1,42.7,261.3,42.7z"/>
<g>
	<path class="st2" d="M298.7,208c0,2.3-0.6,4.7-1.5,6.8H297c-6.2,2.6-11.9,5.5-17.7,9.2H80c-8.7,0-16-7.3-16-16c0-8.7,7.3-16,16-16
		h202.7C291.4,192,298.7,199.3,298.7,208z"/>
	<path class="st2" d="M236.2,261.3c-7.9,9.8-14.5,20.5-19.4,32H80c-8.7,0-16-7.3-16-16s7.3-16,16-16H236.2z"/>
	<path class="st2" d="M202.7,357.3l0.2,5.3H80c-8.7,0-16-7.3-16-16c0-8.7,7.3-16,16-16h125.2C203.5,339.2,202.7,348.2,202.7,357.3z"
		/>
</g>
<path class="st3" d="M85.3,64H58.7C26.2,64,0,90.2,0,122.7v266.7C0,421.8,26.2,448,58.7,448h122.7v-85.3H80c-8.7,0-16-7.3-16-16
	c0-8.7,7.3-16,16-16h101.3v-37.3H80c-8.7,0-16-7.3-16-16s7.3-16,16-16h101.3V224H80c-8.7,0-16-7.3-16-16c0-8.7,7.3-16,16-16h101.3
	v-53.3h-58.7c-20.5,0-37.3-16.9-37.3-37.3V64z"/>
<path class="st4" d="M181.3,0c-26.9,0-49.5,18.1-56.5,42.7h-23.5c-8.7,0-16,7.3-16,16V64v37.3c0,20.5,16.9,37.3,37.3,37.3h58.7V0z"
	/>
<path class="st5" d="M181.3,192H80c-8.7,0-16,7.3-16,16c0,8.7,7.3,16,16,16h101.3V192z"/>
<path class="st5" d="M181.3,261.3H80c-8.7,0-16,7.3-16,16s7.3,16,16,16h101.3V261.3z"/>
<path class="st5" d="M181.3,330.7H80c-8.7,0-16,7.3-16,16c0,8.7,7.3,16,16,16h101.3V330.7z"/>
<path class="st6" d="M357.3,469.3c-61.8,0-112-50.2-112-112s50.2-112,112-112s112,50.2,112,112S419.1,469.3,357.3,469.3z M357.3,288
	c-38.2,0-69.3,31.1-69.3,69.3s31.1,69.3,69.3,69.3s69.3-31.1,69.3-69.3S395.6,288,357.3,288z"/>
<path class="st7" d="M490.7,512c-5.5,0-10.9-2.1-15.1-6.3l-69.3-69.3c-8.3-8.3-8.3-21.8,0-30.2c8.3-8.3,21.8-8.3,30.2,0l69.3,69.3
	c8.3,8.3,8.3,21.8,0,30.2C501.6,509.9,496.1,512,490.7,512L490.7,512z"/>
<path class="st8" d="M278.3,278.1c-20.3,20.3-32.9,48.3-32.9,79.2c0,61.8,50.2,112,112,112c23.2,0,44.8-7.1,62.6-19.2l-13.7-13.7
	c-7.9-7.9-8.3-20.3-1.3-28.7c-12.4,11.7-29.2,18.9-47.6,18.9c-38.2,0-69.3-31.1-69.3-69.3c0-19.2,7.8-36.5,20.4-49.1L278.3,278.1z"
	/>
<path class="st9" d="M406.3,406.2C406.3,406.2,406.3,406.2,406.3,406.2c-0.6,0.6-1,1.1-1.4,1.6c-7,8.4-6.5,20.8,1.3,28.7l13.7,13.7
	l55.6,55.6c4.2,4.2,9.6,6.3,15.1,6.3s10.9-2.1,15.1-6.3l0.1-0.1L406.3,406.2z"/>
</svg>
