<?xml version="1.0" encoding="utf-8"?>
<!-- Generator: Adobe Illustrator 24.1.2, SVG Export Plug-In . SVG Version: 6.00 Build 0)  -->
<svg version="1.1" id="color" xmlns="http://www.w3.org/2000/svg" xmlns:xlink="http://www.w3.org/1999/xlink" x="0px" y="0px"
	 viewBox="0 0 512 512" style="enable-background:new 0 0 512 512;" xml:space="preserve">
<style type="text/css">
	.st0{fill:#F7F7F7;}
	.st1{fill:#E8E9EA;}
	.st2{fill:#2196F3;}
	.st3{fill:#CFD0D1;}
	.st4{fill:#B1B1B2;}
	.st5{fill:#1E5E82;}
	.st6{fill:#FFC107;}
	.st7{fill:#DEA806;}
</style>
<path class="st0" d="M304,64H58.7C26.2,64,0,90.2,0,122.7v266.7C0,421.8,26.2,448,58.7,448h157.4l4.7-26.2
	c2.2-11.9,7.7-22.6,16.2-31.4l27.7-27.7H80c-8.7,0-16-7.3-16-16s7.3-16,16-16h202.7c3.8,0,7.5,1.5,10.2,3.8l69.8-69.5V122.7
	C362.7,90.2,336.4,64,304,64L304,64z M282.7,293.3H80c-8.7,0-16-7.3-16-16s7.3-16,16-16h202.7c8.7,0,16,7.3,16,16
	S291.4,293.3,282.7,293.3z M282.7,224H80c-8.7,0-16-7.3-16-16s7.3-16,16-16h202.7c8.7,0,16,7.3,16,16S291.4,224,282.7,224z"/>
<path class="st1" d="M261.3,42.7h-23.5C230.8,18.1,208.2,0,181.3,0s-49.5,18.1-56.5,42.7h-23.5c-8.7,0-16,7.3-16,16v42.7
	c0,20.5,16.9,37.3,37.3,37.3H240c20.5,0,37.3-16.9,37.3-37.3V58.7C277.3,49.9,270.1,42.7,261.3,42.7z"/>
<g>
	<path class="st2" d="M298.7,208c0,8.7-7.3,16-16,16H80c-8.7,0-16-7.3-16-16s7.3-16,16-16h202.7C291.4,192,298.7,199.3,298.7,208z"
		/>
	<path class="st2" d="M298.7,277.3c0,8.7-7.3,16-16,16H80c-8.7,0-16-7.3-16-16s7.3-16,16-16h202.7
		C291.4,261.3,298.7,268.6,298.7,277.3z"/>
	<path class="st2" d="M292.9,334.5l-28.2,28.2H80c-8.7,0-16-7.3-16-16s7.3-16,16-16h202.7C286.5,330.7,290.1,332.2,292.9,334.5z"/>
</g>
<path class="st3" d="M85.3,64H58.7C26.2,64,0,90.2,0,122.7v266.7C0,421.8,26.2,448,58.7,448h122.7v-85.3H80c-8.7,0-16-7.3-16-16
	s7.3-16,16-16h101.3v-37.3H80c-8.7,0-16-7.3-16-16s7.3-16,16-16h101.3V224H80c-8.7,0-16-7.3-16-16s7.3-16,16-16h101.3v-53.3h-58.7
	c-20.5,0-37.3-16.9-37.3-37.3V64z"/>
<path class="st4" d="M181.3,0c-26.9,0-49.5,18.1-56.5,42.7h-23.5c-8.7,0-16,7.3-16,16V64v37.3c0,20.5,16.9,37.3,37.3,37.3h58.7V0z"
	/>
<path class="st5" d="M181.3,192H80c-8.7,0-16,7.3-16,16s7.3,16,16,16h101.3V192z"/>
<path class="st5" d="M181.3,261.3H80c-8.7,0-16,7.3-16,16s7.3,16,16,16h101.3V261.3z"/>
<path class="st5" d="M181.3,330.7H80c-8.7,0-16,7.3-16,16s7.3,16,16,16h101.3V330.7z"/>
<path class="st6" d="M267.2,512c-4.2,0-8.3-1.7-11.3-4.7c-3.7-3.7-5.4-8.9-4.4-14.1l11.3-64.1c0.6-3.2,2.1-6.2,4.4-8.5l158.4-158.4
	c19.5-19.5,38.6-14.2,49-3.8l26.4,26.4c14.6,14.6,14.6,38.2,0,52.8L342.7,496c-2.3,2.3-5.3,3.9-8.5,4.5L270,511.7L267.2,512z
	 M331.3,484.7h0.2H331.3z"/>
<path class="st7" d="M452.9,249.1c-8.4,0-17.8,3.6-27.3,13.1L267.2,420.6c-2.3,2.3-3.9,5.3-4.4,8.5l-11.3,64.1
	c-0.9,5.2,0.7,10.4,4.4,14.1c0.2,0.2,0.3,0.3,0.5,0.5L490.2,274l-15.6-15.6C469.3,253.1,461.7,249.1,452.9,249.1L452.9,249.1z"/>
</svg>
