<?xml version="1.0" encoding="utf-8"?>
<!-- Generator: Adobe Illustrator 24.1.2, SVG Export Plug-In . SVG Version: 6.00 Build 0)  -->
<svg version="1.1" id="Capa_1" xmlns="http://www.w3.org/2000/svg" xmlns:xlink="http://www.w3.org/1999/xlink" x="0px" y="0px"
	 viewBox="0 0 579 568" style="enable-background:new 0 0 579 568;" xml:space="preserve">
<style type="text/css">
	.st0{fill:#FF8533;}
	.st1{fill:#FF6700;}
	.st2{fill:#E8EFFF;}
	.st3{fill:#CCDFFF;}
	.st4{fill:#F9E14E;}
	.st5{fill:#FFBF00;}
	.st6{fill:#40B4F9;}
	.st7{fill:#72CAF7;}
</style>
<path class="st0" d="M544.6,257.4l-60-60c-2.8-2.8-6.6-4.4-10.6-4.4H114c-4,0-7.8,1.6-10.6,4.4l-60,60c-3.3,3.3-4.8,7.8-4.3,12.2
	c0.4,0.2,254.7,143,255.2,143.2c0.4-0.3,254.2-143,254.6-143.2C549.4,265.2,547.9,260.7,544.6,257.4z"/>
<path class="st1" d="M544.6,257.4c-6.6-6.6-54.2-54.2-60-60c-2.8-2.8-6.6-4.4-10.6-4.4H294v219.7c0.2,0.1,0.3,0.2,0.3,0.2
	c0.3-0.2,119.5-67.2,194.7-109.5c34.5-19.4,59.8-33.6,59.9-33.7C549.4,265.5,548.1,260.8,544.6,257.4z"/>
<path class="st2" d="M139.7,49.9h308.7c33.4,0,60.6,24.7,60.6,55v222L296.4,435.2c-1.6,0.8-3.7,0.9-5.4,0L79,327V104.9
	C79,74.6,106.2,49.9,139.7,49.9z"/>
<path class="st3" d="M139.7,49.9H294v385.8c-2.2,0.2,11.2,6.6-215-108.8V104.9C79,74.6,106.2,49.9,139.7,49.9z"/>
<path class="st4" d="M39.4,264.8l254.4,143.1l254.9-143.1c0.5,2.3,0.4-12,0.4,219.2c0,30.3-24.7,55-55,55H94c-30.3,0-55-24.7-55-55
	C39,252.8,38.9,267.1,39.4,264.8z"/>
<path class="st5" d="M39.3,265c0,0,0-0.1,0.1-0.3L99,298.3l194.7,109.5l0.3-0.2V539H94c-30.3,0-55-24.7-55-55
	C39,264.6,38.9,266.2,39.3,265z"/>
<path class="st6" d="M294,89c-57.9,0-105,47.1-105,105v30c0,57.9,47.1,105,105,105h30c8.3,0,15-6.7,15-15s-6.7-15-15-15h-30
	c-41.4,0-75-33.6-75-75v-30c0-41.4,33.6-75,75-75s75,33.6,75,75v30.3c0,21.5-30,20.5-30-0.3v-30c0-24.8-20.2-45-45-45
	s-45,20.2-45,45v30c0,38.4,45.4,59.2,74.4,34c27.5,25.5,75.6,8.7,75.6-33.7V194C399,136.1,351.9,89,294,89z M294,239
	c-8.3,0-15-6.7-15-15v-30c0-8.3,6.7-15,15-15s15,6.7,15,15v30C309,232.3,302.3,239,294,239z"/>
<path class="st7" d="M294,89v30c41,0,74.4,33.1,75,74c0,0.3,0,0.7,0,1v30.3c0,21.8-30,19.7-30,0.7v-31c0-0.3,0-0.7,0-1
	c-0.5-24.4-20.5-44-45-44v30c8.3,0,15,6.8,15,15v30c0,8.3-6.7,15-15,15v30c10.2,0.1,20.6-3.3,29.4-11c27.5,25.5,75.6,8.7,75.6-33.7
	V194C399,136.1,352,89,294,89z M324,299h-30v30h30c8.3,0,15-6.7,15-15S332.3,299,324,299z"/>
</svg>
