<?xml version="1.0" encoding="utf-8"?>
<!-- Generator: Adobe Illustrator 24.1.2, SVG Export Plug-In . SVG Version: 6.00 Build 0)  -->
<svg version="1.1" id="Capa_1" xmlns="http://www.w3.org/2000/svg" xmlns:xlink="http://www.w3.org/1999/xlink" x="0px" y="0px"
	 viewBox="0 0 512 512" style="enable-background:new 0 0 512 512;" xml:space="preserve">
<style type="text/css">
	.st0{fill:#E6E7E8;}
	.st1{fill:#FFFFFF;}
	.st2{fill:#2196F3;}
</style>
<g>
	<path class="st0" d="M234.7,368v-90.7H144c-11.8,0-21.3-9.6-21.3-21.3s9.6-21.3,21.3-21.3h90.7V144c0-11.8,9.6-21.3,21.3-21.3V0
		C114.8,0,0,114.8,0,256s114.8,256,256,256V389.3C244.2,389.3,234.7,379.8,234.7,368z"/>
	<path class="st1" d="M256,0v122.7c11.8,0,21.3,9.6,21.3,21.3v90.7H368c11.8,0,21.3,9.6,21.3,21.3s-9.6,21.3-21.3,21.3h-90.7V368
		c0,11.8-9.6,21.3-21.3,21.3V512c141.2,0,256-114.8,256-256S397.2,0,256,0z"/>
	<path class="st2" d="M277.3,368v-90.7H368c11.8,0,21.3-9.6,21.3-21.3s-9.6-21.3-21.3-21.3h-90.7V144c0-11.8-9.6-21.3-21.3-21.3
		v266.7C267.8,389.3,277.3,379.8,277.3,368z"/>
	<path class="st2" d="M234.7,144v90.7H144c-11.8,0-21.3,9.6-21.3,21.3s9.6,21.3,21.3,21.3h90.7V368c0,11.8,9.6,21.3,21.3,21.3V122.7
		C244.2,122.7,234.7,132.2,234.7,144z"/>
</g>
</svg>
