<svg xmlns="http://www.w3.org/2000/svg" viewBox="0 0 512 233.07"><defs><style>.cls-1{fill:#80cb8e;}.cls-2{fill:#6ec17d;}.cls-3{fill:#454045;}</style></defs><g id="Capa_2" data-name="Capa 2"><g id="Capa_1-2" data-name="Capa 1"><circle class="cls-1" cx="116.53" cy="116.54" r="116.53"/><path class="cls-2" d="M136.61,231.34A116.54,116.54,0,1,1,116.53,0a117.52,117.52,0,0,1,20.08,1.73,116.55,116.55,0,0,0,0,229.61Z"/><path class="cls-3" d="M60.74,71.74c-8,0-14.46,10.77-14.46,24s6.48,24,14.46,24S75.2,109,75.2,95.76,68.71,71.74,60.74,71.74Z"/><path class="cls-3" d="M172.33,71.74c-8,0-14.47,10.77-14.47,24s6.49,24,14.47,24,14.46-10.78,14.46-24S180.3,71.74,172.33,71.74Z"/><path class="cls-3" d="M116.53,182.45a58.86,58.86,0,0,1-54.34-36.07,7.73,7.73,0,1,1,14.24-6,43.52,43.52,0,0,0,80.21,0,7.72,7.72,0,1,1,14.23,6,58.86,58.86,0,0,1-54.34,36.07Z"/><path class="cls-1" d="M407,218.38a21.26,21.26,0,0,1-16.48-7.82L311,113a21.26,21.26,0,0,1,32.95-26.86L403,158.63,471.88,26.15a21.25,21.25,0,0,1,37.72,19.6L425.83,206.93a21.25,21.25,0,0,1-16.69,11.34A19.84,19.84,0,0,1,407,218.38Z"/></g></g></svg>