<?xml version="1.0" encoding="utf-8"?>
<!-- Generator: Adobe Illustrator 24.1.2, SVG Export Plug-In . SVG Version: 6.00 Build 0)  -->
<svg version="1.1" id="Layer_1" xmlns="http://www.w3.org/2000/svg" xmlns:xlink="http://www.w3.org/1999/xlink" x="0px" y="0px"
	 viewBox="0 0 512 512" style="enable-background:new 0 0 512 512;" xml:space="preserve">
<style type="text/css">
	.st0{fill:#5EEFEE;}
	.st1{fill:#54C9FC;}
	.st2{fill:#FFFFFF;}
	.st3{fill:#EDEDED;}
	.st4{fill:#D3D3D3;}
	.st5{fill:#F4F4F4;}
</style>
<g>
	<g>
		<ellipse class="st0" cx="190.9" cy="191.1" rx="134.1" ry="135.8"/>
		<path class="st1" d="M96.1,287.2c52.4,53,137.3,53,189.7,0L96.1,95.1C43.7,148.1,43.7,234.1,96.1,287.2L96.1,287.2z"/>
		<path class="st2" d="M334.4,269.9l-65.6,66.5l113,114.4l65.6-66.5L334.4,269.9z"/>
		<path class="st2" d="M414.7,417.6l-113-114.4l-32.8,33.2l113,114.4L414.7,417.6z"/>
		<g>
			<path class="st3" d="M318.2,320c70.2-71.1,70.2-186.7,0-257.7C248-8.8,133.8-8.8,63.6,62.3s-70.2,186.7,0,257.7
				C133.8,391,248,391,318.2,320L318.2,320z M109.2,108.4c45-45.6,118.3-45.6,163.4,0s45,119.8,0,165.4s-118.3,45.6-163.4,0
				C64.2,228.2,64.2,154,109.2,108.4z"/>
		</g>
		<g>
			<path class="st4" d="M63.6,62.3l45.6,46.2c-45,45.6-45,119.8,0,165.4c45,45.6,118.3,45.6,163.4,0l45.6,46.2
				c-11.3,11.5-23.8,21.1-37.1,28.9c-68.8,40.3-158.6,30.7-217.4-28.9C-6.5,248.9-6.5,133.3,63.6,62.3L63.6,62.3z"/>
		</g>
		<path class="st5" d="M482.4,486.2c18.1-18.4,18.1-48.1,0-66.5L444.1,381l-65.7,66.5l38.3,38.8
			C434.9,504.6,464.3,504.6,482.4,486.2L482.4,486.2z"/>
		<path class="st4" d="M378.4,447.5l38.3,38.8c18.1,18.4,47.5,18.4,65.7,0l-71.1-72L378.4,447.5z"/>
	</g>
</g>
</svg>
